<?xml version="1.0" encoding="UTF-8"?>
<svg id="Layer_1" xmlns="http://www.w3.org/2000/svg" version="1.1" viewBox="0 0 2834.6 2834.6">
  <!-- Generator: Adobe Illustrator 29.2.0, SVG Export Plug-In . SVG Version: 2.1.0 Build 108)  -->
  <path d="M1220.4,119.5c85-61.4,199.2-103,298.3-53.9,337.5,198.4,677,399.9,1007.9,609,44.8,26.5,80.6,67.5,101.3,115.1,8.8,20.1,15.6,41.1,17.8,62.8,14.9,369.3,6,749.2,3.8,1121,.4,53.5-29.3,117.7-64.4,157.5-32.6,36.2-75.7,57.9-117.2,83.1-313.6,176.4-618.5,373.1-933.4,548.2-58.6,26.9-123.4,38.3-185.9,18.3-24.8-8.7-48.2-20.7-71.4-33.2-309.9-186-614.3-369.3-928-546.1-66.9-39.5-131.6-93.7-152.5-171.4-32.1-370.5-5.9-754.6-9-1127.8-4.9-76.7,29.7-153.3,87.7-203.9,308.6-199.7,628.9-385.2,944.8-578.6h.2Z" fill="#3a3a3a"/>
  <path d="M1392.4,137.9c-362.7,160.8-693.6,414.2-1044.2,608.8-20.2,14.2-36.9,32.5-48.7,53-29.8,50.8-35.5,116.5-34.5,175.8,12.7,325.2-1.9,654.2,7,977.9.3,34.8,9.8,69.8,28.5,99.4,6.1,9.1,13.9,16.7,22.6,23.4,305.7,208.1,644.7,374.7,955.3,576.2,85.5,57.8,160.2,79.2,251.8,18.7,321.5-188.5,642.8-377.5,962-571,24-18.5,42.8-42.5,54.4-68,37-82.5,20.6-179.9,20-267.5.2-61.1,1.5-122.6,3.7-183.5.2-22-2.5-44.3-2.6-66.1,2.2-198.2-1.3-397.1-.6-596.8-.1-17.8-2.1-35.5-6.7-52.7-9.8-37.1-26.3-77.1-58.5-100.7-298.5-206.7-622.2-381.8-931.4-572.9-25.6-14.9-51.5-30.5-78.4-41.2-29.6-11.8-66.2-20-99.3-12.9h-.2Z" fill="#fff"/>
  <path d="M405.9,2005.3c-41.9-49.3-37.7-118.9-39.8-179.9-.8-79.3,4.3-159,4.7-238.1,1.3-218-11.5-437.4,0-656,3.3-27.1,10.6-53.3,25.8-75.6,11.4-16.8,26.5-30.9,43.4-42.9,294.4-173.5,584.4-362,880.4-530.3,32.8-18.5,68.5-37.7,106.8-36.1,47.6,2,89.3,30.2,129.5,53.6,279,169.6,559.1,338.6,837.5,509.3,18.8,13.7,35.8,29.2,47.9,48.6,13.9,22,20.1,47.3,22.4,73.5,6.1,324.9,9.9,651.8,2.6,977.1-3.3,54.6-28.6,99.3-74.4,129.4-294,188.4-599.8,360.4-899.6,539.7-63.6,36.2-108.2,23.5-168-12.6-274.3-158.7-540-333.7-818.4-486.5-35.8-20.4-73.9-41.6-100.8-73v-.2Z" fill="#3a3a3a"/>
  <path d="M1268.3,813.6c15.6-19.3,15.9-45,15.9-69,.3-23.6-1.7-47.2-2.2-70.8-.6-26.8,3.1-53.9-3.9-79.7-12.7-51.5-71.3-84.9-118.8-54.5-19.5,12.3-32.7,33.2-36.5,55.8-7,44.7,2.2,90.6-2.1,135.2-1.8,23.4-4.7,48.6,6.1,70.2,12.7,25.7,39.7,45.7,68.1,48.1,28.3,2.3,55.9-13.7,73.3-35.2v-.2Z" fill="#fff"/>
  <path d="M1613.9,528.7c-45.2,10.1-65.7,55.4-63.4,98.5.2,47.8-1.2,100,.9,145.5,1.6,17.6,9.9,34.7,21.2,48.3,35.1,45.4,89.5,35.2,122-7,13.5-16.2,16.6-37.7,16.7-58.2.5-26.1,2.2-52.7,2.5-78.6-1.1-36,0-74.5-16-107.6-15.4-29.6-50.8-48.1-83.7-40.9h-.2Z" fill="#fff"/>
  <path d="M1973.9,1059.6c25.6-20.8,29.1-54.4,28.2-85.9,0-20.7-1-43.9-16.3-59.5-11.7-12.3-29.7-18-46.6-19.5-350.1,3.5-706.2-2.9-1053,3.5-46.6.1-62.9,21.8-65.7,67.4-2.1,36.4,3.7,80.7,38.3,99.8,20.8,11,46.1,9.2,69.1,9.7,329.1,1.1,668.4-4.1,998.7,1,17.2-.9,33.8-5.3,47-16.3h.2Z" fill="#fff"/>
  <path d="M1882,1141.2c-4.9-6.7-13.7-8.3-22-8.6-218.9-5.2-819.9,2.4-917.4,1.3-12.4-1.1-12.4,15.6-13.6,24.7-11.5,133.4,19,313,176.9,317.4,15,1.9,24.4,9.7,25.2,24.4-1.7,96-19.1,201.6,14,292.5,13.9,39.3,44,65.2,82.7,79,36.5,13.7,36.7,34.3,54.9,62.3,13,17.4,36.6,19.6,57,20.1,61,1.2,122.5-3.1,183.6-5.3,47.1-3.4,34.5-40,57.2-66.7,12.1-12.9,31.8-17.8,47-26.9,13-7.5,24.4-17.4,33.9-28.9,41.4-48.8,38.6-116.1,40.7-176.4.7-29,.5-58.3-2.3-87.2-.3-23.1-12.5-50.6-4.9-72.3,11.7-21.9,49.3-15.2,70.2-25.4,61.3-22.8,99.1-90,115.8-152.9,7.5-30.5,7.9-62,8-93.5,0-15.2-.3-30.5-.5-45.1,0-10.5-.6-24.6-6.3-32.5h0Z" fill="#fff"/>
  <path d="M1451.2,2005.9c-16.1-7.7-65.8-7.1-79.1,4.6-6.1,5.2-7,12.7-7,20.2.8,82.8-3.3,321.7,1.7,402,9.2,12.4,27.9,8.6,42.8,9.7,15.1-.4,29.5,1.1,41.8-2.7,8.4-2.4,10.8-10.5,10.7-18.4,1.7-61.9-1.1-193.1-1.6-266.3-.3-26.8-.2-52.4-.3-79.1,0-14.5-.2-30.3-.3-42.1-.3-9.8.9-22.2-8.7-27.8h-.1Z" fill="#fff"/>
  <path d="M1436,1342.5c27.8-1,55.7-1.7,83.8-1.5,18.1.2,35.6,0,52.6,4.3,10.2,2.6,18.8,6.9,23.9,12.6,8.7,9.4,8.3,22.3,1.2,31.5-7.8,9.8-19.1,13.2-31.8,14.8-7.8.9-16.4,1.1-24.8,1.2-73.4-.2-199.5,1.2-273.1-1.1-11.4-1.3-21.4-3.5-29.6-11-15.1-14.5-6.9-35,12.7-42.1,23.1-8.8,48.7-6.8,73.4-7.1,37.1.4,74.3-.2,111.3-1.6h.2Z" fill="#3a3a3a"/>
  <path d="M1251.2,1559.7c14.5-8,34.2-7.8,51.3-8.1,61.1-.3,124.1-1.6,185.3-1.2,27.4,1.2,76.1-3.4,95.8,15.6,8.1,7.5,9.2,19.7,4.4,29.1-10,19.9-35.1,20.2-54.9,20-69.7-.5-190.2,1.1-258.7-.7-6.1-.6-11.7-1.7-16.8-3.9-22.2-8.4-29-38.4-6.5-50.8h.2Z" fill="#3a3a3a"/>
  <path d="M1248.6,1699.4c10.6-7.1,26.3-8.8,39.8-9.4,14-.5,28.8-.3,43.2-.4,57.6-.1,115.7,0,173.6.1,16.5.2,34.5-.5,49.6.8,12.7,1.4,23,3.8,30.9,12.2,14.9,17.8,0,39.6-20.1,46.2-14.8,5.5-32.3,5.7-48.4,5.2-66.8-4.3-133.8-.3-200.8-.2-8.5,0-17.2-.2-25.7-1-17-1.4-38.1-6.8-47.9-20-9.1-11.6-5.8-26.3,5.6-33.5h.1Z" fill="#3a3a3a"/>
  <path d="M1608,661.9c.5-19.9-2.9-50.9,10.6-66.2,4.8-5.1,10.8-7,16.7-5.2,26.4,9.9,22.3,57.5,23.2,81.1-.5,23.7-.3,47.7-1.8,71.4-1,11.7-3.7,25.7-10.8,34.1-6.5,8.6-18.7,10.6-26.5,1.7-13-15.4-11.2-40.6-11.7-60.7,0-19,.3-37.7.1-55.9v-.2ZM1613.1,611c-1.8.1-1.8,3.1.1,3,1.9,0,1.9-2.9.1-3h-.2Z" fill="#3a3a3a"/>
  <path d="M1200,590.4c17.3-.4,24.3,18.5,26.3,33.1,4.9,38.1,2.7,76.6,1.7,114.9-.2,5.7-.5,11.4-1.4,17.1-2,16.3-12.9,32.2-31,25.9-21.6-9.7-19.2-38.5-19.2-58.4,3.8-33-14.3-130.4,23.4-132.6h.2Z" fill="#3a3a3a"/>
  <path d="M1433.9,1205.5c27.8-1,55.7-1.7,83.8-1.5,18.1.2,35.6,0,52.6,4.3,10.2,2.6,18.8,6.9,23.9,12.6,8.7,9.4,8.3,22.3,1.2,31.5-7.8,9.8-19.1,13.2-31.8,14.8-7.8.9-16.4,1.1-24.8,1.2-73.4-.2-199.5,1.2-273.1-1.1-11.4-1.3-21.4-3.5-29.6-11-15.1-14.5-6.9-35,12.7-42.1,23.1-8.8,48.7-6.8,73.4-7.1,37.1.4,74.3-.2,111.3-1.6h.2Z" fill="#3a3a3a"/>
  <path d="M2570.3,1581.3" fill="#3a3a3a"/>
</svg>