<?xml version="1.0" encoding="UTF-8"?>
<svg xmlns="http://www.w3.org/2000/svg" version="1.1" viewBox="0 0 792 612">
  <!-- Generator: Adobe Illustrator 29.2.0, SVG Export Plug-In . SVG Version: 2.1.0 Build 108)  -->
  <defs>
    <style>
      .st0 {
        fill: #333;
      }

      .st1, .st2 {
        fill: #fff;
      }

      .st2 {
        stroke: #000;
      }

      .st2, .st3, .st4 {
        stroke-miterlimit: 10;
      }

      .st5, .st4 {
        fill: #333;
      }

      .st3 {
        fill: none;
        stroke: #333;
        stroke-width: 25px;
      }

      .st6 {
        display: none;
      }

      .st4 {
        stroke: #f5f5f5;
      }
    </style>
  </defs>
  <g id="Layer_11">
    <path class="st5" d="M612.35,192.6l-.17,211.86c-.01,10.79-5.79,20.77-15.19,26.17l-183.96,105.73c-9.43,5.41-21.03,5.4-30.43-.02l-183.8-106.01c-9.38-5.41-15.15-15.4-15.15-26.19l.16-211.86c.01-10.79,5.8-20.77,15.2-26.16l183.96-105.75c9.43-5.41,21.03-5.4,30.43.03l183.8,106.01c9.38,5.41,15.16,15.4,15.15,26.19Z"/>
    <path class="st1" d="M612,150.93l-191.82-110.42c-13.39-7.7-29.88-7.71-43.28-.03l-191.99,110.13c-13.4,7.68-21.65,21.9-21.67,37.29l-.17,220.55c0,15.39,8.23,29.62,21.62,37.32l191.81,110.42c13.39,7.71,29.89,7.73,43.29.04l191.97-110.13c13.4-7.69,21.67-21.9,21.67-37.3l.18-220.54c.01-15.39-8.24-29.62-21.61-37.33ZM609.92,403.9c-.01,10.74-5.72,20.66-15.01,26.03l-181.71,105.19c-9.31,5.39-20.77,5.38-30.07-.02l-181.56-105.47c-9.27-5.38-14.97-15.31-14.97-26.05l.16-210.77c.01-10.74,5.73-20.66,15.01-26.03l181.72-105.2c9.31-5.38,20.77-5.37,30.06.03l181.56,105.47c9.28,5.39,14.98,15.32,14.97,26.06l-.16,210.76Z"/>
    <path class="st3" d="M176.44,144.03L376.04,28.99c13.93-8.03,31.08-8.01,45,.03l199.43,115.34c13.92,8.05,22.48,22.91,22.47,38.99l-.18,230.38c-.01,16.08-8.6,30.93-22.53,38.95l-199.6,115.04c-13.93,8.03-31.08,8.01-45-.03l-199.43-115.34c-13.92-8.05-22.48-22.91-22.47-38.99l.18-230.38c.01-16.08,8.6-30.93,22.53-38.95Z"/>
  </g>
  <g id="Layer_11_copy">
    <g id="Layer_4_copy_2" class="st6">
      <path class="st2" d="M607.95,149.3l-186.95-107.94c-16.71-9.65-37.29-9.65-54,0l-186.95,107.94c-16.71,9.65-27,27.47-27,46.77v215.87c0,19.29,10.29,37.12,27,46.77l186.95,107.94c16.71,9.65,37.29,9.65,54,0l186.95-107.94c16.71-9.65,27-27.47,27-46.77v-215.87c0-19.29-10.29-37.12-27-46.77Z"/>
    </g>
    <g id="Layer_21" class="st6">
      <g id="Layer_5_copy">
        <path class="st1" d="M349.17,186.26h0c-9.47,0-17.14-7.68-17.14-17.14v-32.7c0-9.47,7.68-17.14,17.14-17.14h0c9.47,0,17.14,7.68,17.14,17.14v32.7c0,9.47-7.68,17.14-17.14,17.14Z"/>
        <path class="st1" d="M438.14,187.09h0c-9.47,0-17.14-7.68-17.14-17.14v-32.7c0-9.47,7.68-17.14,17.14-17.14h0c9.47,0,17.14,7.68,17.14,17.14v32.7c0,9.47-7.68,17.14-17.14,17.14Z"/>
      </g>
      <g id="Layer_6_copy">
        <path class="st5" d="M349.2,172.65h0c-3.12,0-5.65-2.53-5.65-5.65v-28.49c0-3.12,2.53-5.65,5.65-5.65h0c3.12,0,5.65,2.53,5.65,5.65v28.49c0,3.12-2.53,5.65-5.65,5.65Z"/>
        <path class="st4" d="M438.14,172.65h0c-3.12,0-5.65-2.53-5.65-5.65v-28.49c0-3.12,2.53-5.65,5.65-5.65h0c3.12,0,5.65,2.53,5.65,5.65v28.49c0,3.12-2.53,5.65-5.65,5.65Z"/>
      </g>
      <g id="Layer_8_copy">
        <path class="st1" d="M405.78,517.22h-19.57v-91.53h19.57v91.53Z"/>
      </g>
      <g id="Layer_20">
        <path class="st1" d="M510.06,232.4h-230.14c-4.42,0-8-3.58-8-8v-19.89c0-4.42,3.58-8,8-8h230.14c4.42,0,8,3.58,8,8v19.89c0,4.42-3.58,8-8,8Z"/>
      </g>
      <g id="Layer_9_copy">
        <path class="st1" d="M494.41,245.8v34.69c0,19.89-16.12,36-36,36h-4.39c1.67,4.01,2.59,8.42,2.59,13.04v38.15c0,18.78-15.22,34-34,34h3.18v6.23c0,4.41-3.58,8-8,8h-45.61c-4.42,0-8-3.59-8-8v-6.23h3.18c-18.78,0-34-15.22-34-34v-38.15c0-4.62.92-9.03,2.59-13.04h-4.38c-19.88,0-36-16.11-36-36v-34.69h198.84Z"/>
      </g>
      <g id="Layer_10_copy">
        <path class="st0" d="M429.64,273.89h-69.3c-2.21,0-4-1.79-4-4v-5.38c0-2.21,1.79-4,4-4h69.3c2.21,0,4,1.79,4,4v5.38c0,2.21-1.79,4-4,4Z"/>
        <path class="st0" d="M429.64,302.22h-69.3c-2.21,0-4-1.79-4-4v-5.38c0-2.21,1.79-4,4-4h69.3c2.21,0,4,1.79,4,4v5.38c0,2.21-1.79,4-4,4Z"/>
        <path class="st0" d="M429.64,345.68h-69.3c-2.21,0-4-1.79-4-4v-5.38c0-2.21,1.79-4,4-4h69.3c2.21,0,4,1.79,4,4v5.38c0,2.21-1.79,4-4,4Z"/>
        <path class="st0" d="M429.64,374.72h-69.3c-2.21,0-4-1.79-4-4v-5.38c0-2.21,1.79-4,4-4h69.3c2.21,0,4,1.79,4,4v5.38c0,2.21-1.79,4-4,4Z"/>
      </g>
    </g>
  </g>
</svg>